PathFileType  4	(X/Y/Z) C:\Users\antoi\Documents\MyRepositories\mobilecap\ResultsAnalysis
DataRate	CameraRate	NumFrames	NumMarkers	Units	OrigDataRate	OrigDataStartFrame	OrigNumFrames
100.0	100.0	6	51	mm	100.0	1	128
Frame#	Time	r_knee			r_shank_antsup			r_ankle			r_calc			r_5meta			r_toe			L_knee			L_shank_antsup			L_ankle			L_calc			L_5meta			L_toe			r_sh2			r_sh3			r_sh4			L_sh2			L_sh3			r_thigh1			r_thigh2			r_thigh3			r_thigh4			r_thigh5			L_thigh1			L_thigh2			L_thigh3			L_thigh4			r.ASIS			r.PSIS			L.ASIS			L.PSIS			C7			R_Shoulder			L_Shoulder			R_Sternum			L_Sternum			R_humerus			R_elbow_med			R_elbow_lat			R_forearm			R_wrist_radius			R_wrist_ulna			L_humerus			L_elbow_med			L_elbow_lat			L_forearm			L_wrist_radius			L_wrist_ulna			R_HJC			L_HJC			R_HJC_reg			L_HJC_reg			
		X1	Y1	Z1	X2	Y2	Z2	X3	Y3	Z3	X4	Y4	Z4	X5	Y5	Z5	X6	Y6	Z6	X7	Y7	Z7	X8	Y8	Z8	X9	Y9	Z9	X10	Y10	Z10	X11	Y11	Z11	X12	Y12	Z12	X13	Y13	Z13	X14	Y14	Z14	X15	Y15	Z15	X16	Y16	Z16	X17	Y17	Z17	X18	Y18	Z18	X19	Y19	Z19	X20	Y20	Z20	X21	Y21	Z21	X22	Y22	Z22	X23	Y23	Z23	X24	Y24	Z24	X25	Y25	Z25	X26	Y26	Z26	X27	Y27	Z27	X28	Y28	Z28	X29	Y29	Z29	X30	Y30	Z30	X31	Y31	Z31	X32	Y32	Z32	X33	Y33	Z33	X34	Y34	Z34	X35	Y35	Z35	X36	Y36	Z36	X37	Y37	Z37	X38	Y38	Z38	X39	Y39	Z39	X40	Y40	Z40	X41	Y41	Z41	X42	Y42	Z42	X43	Y43	Z43	X44	Y44	Z44	X45	Y45	Z45	X46	Y46	Z46	X47	Y47	Z47	X48	Y48	Z48	X49	Y49	Z49	X50	Y50	Z50	X51	Y51	Z51	

1	0.00000000	93.58274	494.29865	-109.25605	147.18539	438.13210	-127.94514	154.89982	94.37529	-123.74026	88.53124	64.86617	-162.56492	262.48082	45.72610	-97.11835	308.79774	78.51249	-151.85670	-189.40539	476.22169	-424.41817	-221.02335	380.79721	-439.57383	-471.12711	187.19860	-431.43112	-545.04289	203.47738	-385.71581	-442.96342	60.94259	-463.81095	-391.67478	55.72444	-411.19652	151.91894	323.69430	-102.17955	70.81801	433.23314	-93.56618	77.89469	320.43149	-91.57665	-280.82741	447.46801	-436.19263	-364.01709	357.73908	-448.32707	41.48550	813.45511	-90.95705	79.19167	705.20223	-94.67395	34.91639	668.11291	-60.61820	-61.24561	776.26389	-63.05536	-23.82357	665.88069	-68.99523	-98.00821	727.74037	-459.51261	-117.43832	593.67849	-441.35181	-195.58373	746.58587	-402.32575	-216.74352	607.53629	-397.72291	23.10291	946.47920	-142.90828	-171.21742	984.97974	-200.37851	8.66049	912.23299	-391.82847	-185.43945	982.44199	-300.42494	-155.01587	1391.64508	-298.99853	-69.39398	1357.23916	-112.39654	-61.96934	1352.38358	-469.91069	-17.54490	1354.63529	-268.83522	-9.65734	1353.84016	-310.50538	-85.58609	1235.05685	-32.01842	-161.89509	1024.92077	-43.55333	-148.79376	1052.83603	25.85127	-22.66494	979.48595	25.26016	79.77304	887.82682	14.43440	61.85563	870.05114	40.57143	-25.35094	1249.80758	-533.15707	-38.77670	1006.66054	-522.16666	-17.74505	1046.03322	-589.65854	80.02017	979.85430	-588.17442	177.68268	855.98507	-604.59916	155.92646	847.65972	-630.61355	-56.01591	867.59932	-148.87826	-76.54805	847.82481	-353.37192	-46.09213	859.84746	-165.50403	-69.46278	855.67715	-329.90743	
2	0.01000000	105.70569	496.10378	-107.09852	157.16243	438.05420	-125.76380	155.60119	94.74497	-123.78084	89.25242	65.08350	-162.37372	262.67330	45.35930	-96.85581	309.29576	77.11979	-151.93771	-164.77014	473.19134	-422.78326	-198.39033	379.13811	-437.82235	-454.58524	195.60068	-429.46297	-524.38131	218.24104	-382.23027	-437.68752	68.66426	-462.05549	-385.98737	59.00747	-411.47101	159.05273	323.43428	-100.62798	80.63930	434.83128	-91.57140	84.84838	321.95604	-90.25806	-255.82478	447.75200	-434.03760	-341.92625	361.19752	-445.82965	55.20552	815.99080	-87.99815	92.50158	707.60192	-91.91777	48.09316	670.67953	-57.83721	-48.31449	779.69147	-59.15320	-10.68066	668.68222	-65.99654	-80.64119	726.91089	-456.42045	-96.02443	592.20473	-439.07838	-178.68794	742.34294	-398.94921	-195.21213	602.69228	-395.23913	36.76014	948.44811	-140.46976	-157.90563	987.29819	-198.58192	21.82195	913.53405	-389.16358	-171.96296	983.65265	-298.63540	-140.63263	1393.39839	-294.50693	-53.69958	1357.45064	-108.70405	-48.53189	1354.66734	-466.31199	-3.14818	1355.61387	-265.08472	4.35979	1355.25681	-306.73095	-68.56111	1235.02180	-29.29502	-146.25336	1025.05121	-40.91813	-132.69216	1052.63905	28.59204	-6.85477	978.76196	26.95233	95.01779	886.78527	15.03395	77.36479	868.99531	41.25781	-13.21220	1251.68089	-529.81491	-29.70050	1009.00562	-518.99577	-8.11081	1047.84966	-586.36340	89.23219	980.97950	-584.52589	186.10580	856.53314	-600.50561	164.49207	848.32616	-626.59292	-42.73369	869.77865	-146.29671	-63.13912	849.10522	-350.71000	-33.17564	862.99531	-162.31640	-56.26011	857.01095	-326.61883	
3	0.02000000	117.23550	497.65051	-104.95664	166.77801	437.84875	-123.52884	156.27762	95.05646	-123.80337	89.90638	65.28672	-162.19963	262.85319	45.00069	-96.57748	309.75036	75.81764	-151.98930	-139.98129	470.37368	-421.14050	-175.52790	377.71890	-436.02852	-437.58845	204.04457	-427.26042	-503.52583	232.56142	-378.65181	-431.15753	76.66667	-460.16436	-379.20439	62.80607	-411.40850	165.82631	323.06915	-99.05464	90.06215	436.28201	-89.63116	91.46219	323.35167	-88.99076	-230.60869	448.19817	-431.78806	-319.56607	364.80896	-443.19564	68.73344	818.24392	-84.95543	105.41732	709.66708	-89.04341	60.77160	672.93607	-55.06386	-35.35520	782.69811	-55.73108	1.98643	671.27452	-63.17874	-63.22516	726.18213	-453.39441	-74.52793	590.87883	-436.81168	-161.65944	738.16930	-395.62854	-173.58197	598.02003	-392.75381	50.32926	950.48825	-138.02106	-144.65841	989.54864	-196.86751	34.98308	914.85013	-386.52060	-158.59490	984.87703	-296.92798	-126.36338	1395.18529	-290.10970	-38.07903	1357.75085	-105.12304	-35.21476	1357.00468	-462.77537	11.17483	1356.64057	-261.43012	18.30083	1356.69932	-303.04690	-51.65785	1235.04588	-26.59868	-130.52948	1025.24281	-38.29918	-116.45434	1052.49666	31.29648	9.09320	978.13891	28.53166	110.41100	885.86083	15.48203	93.04414	868.06322	41.80580	-1.19819	1253.60134	-526.55977	-20.72546	1011.36972	-515.77750	1.37540	1049.68503	-583.08285	98.27556	982.10077	-580.86434	194.33372	857.05262	-596.37840	172.84774	848.95976	-622.53286	-29.51834	871.98345	-143.74657	-49.72832	850.38989	-348.08209	-20.20703	866.03322	-159.15701	-43.07959	858.36841	-323.37444	
4	0.03000000	127.71212	498.75692	-102.85435	175.75153	437.43644	-121.24052	156.90376	95.27388	-123.79855	90.44109	65.46933	-162.05540	263.00960	44.65410	-96.28338	310.13052	74.67693	-151.99197	-114.94104	467.97949	-419.48205	-152.26815	376.75282	-434.14571	-419.77147	212.54780	-424.64248	-482.36096	246.05345	-374.92196	-422.30198	85.10211	-458.00127	-370.35444	67.50633	-410.69762	171.99154	322.53947	-97.46625	98.79783	437.48287	-87.78594	97.50335	324.53168	-87.80500	-205.03005	448.95642	-429.36507	-296.72559	368.69738	-440.32538	81.89632	820.00126	-81.78095	117.62130	711.15114	-85.98691	72.55579	674.65971	-52.33123	-22.45119	785.03095	-53.09513	13.80578	673.50363	-60.69201	-45.74059	725.66368	-450.48755	-52.90967	589.85249	-434.56845	-144.40970	734.16560	-392.40500	-151.78096	593.69560	-390.24386	63.74249	952.63736	-135.55567	-131.53341	991.68041	-195.28024	48.13817	916.19757	-383.91939	-145.41769	986.12576	-295.35012	-112.30590	1397.02741	-285.88091	-22.59685	1358.20968	-101.74215	-22.13066	1359.42836	-459.35870	25.35615	1357.75749	-257.95710	32.09655	1358.19040	-299.53555	-34.94989	1235.18723	-23.96746	-114.65597	1025.53961	-35.70605	-99.97473	1052.45162	33.93197	25.29154	977.70089	29.90512	126.07269	885.15305	15.65267	109.03449	867.35991	42.10228	10.59271	1255.59615	-523.46138	-11.94159	1013.76677	-512.48827	10.59397	1051.54981	-579.83038	107.01365	983.21307	-577.18855	202.21012	857.51987	-592.19882	180.82433	849.53236	-618.41045	-16.42273	874.22066	-141.25273	-36.32451	851.68688	-345.51615	-7.16418	868.87770	-156.05389	-29.94115	859.76636	-320.21629	
5	0.04000000	136.89882	499.36453	-100.82795	183.92730	436.81096	-118.97285	157.45634	95.39426	-123.76954	90.83138	65.63590	-161.94617	263.13489	44.31940	-95.99249	310.42535	73.73670	-151.94145	-89.65438	466.20552	-417.79898	-128.54830	376.40050	-432.12356	-400.91276	221.06975	-421.51638	-460.87493	258.42749	-371.03093	-410.39426	93.91469	-455.43723	-358.72312	73.26163	-409.09210	177.46529	321.85323	-95.90776	106.72108	438.40032	-86.05791	102.89452	325.47381	-86.70165	-179.05523	450.14451	-426.71856	-273.30081	372.92583	-437.18046	94.55433	821.16679	-78.48820	128.92251	711.95314	-82.77037	83.21903	675.77158	-49.70603	-9.84557	786.69799	-51.28314	24.57621	675.30718	-58.63037	-28.22303	725.47184	-447.73347	-31.20807	589.27606	-432.37864	-126.93275	730.47528	-389.29824	-129.79674	589.89554	-387.66132	76.95131	954.88024	-133.07409	-118.58179	993.67264	-193.81165	61.26201	917.59675	-381.37638	-132.48055	987.40849	-293.89870	-98.53735	1398.93182	-281.86571	-7.31198	1358.86875	-98.61475	-9.38376	1361.93882	-456.11383	39.33029	1358.99817	-254.73410	45.68350	1359.75003	-296.26633	-18.45679	1235.49724	-21.45280	-98.59989	1025.95979	-33.14305	-83.20598	1052.52955	36.46904	41.80094	977.50530	31.01086	142.06658	884.73448	15.46118	125.41699	866.96029	42.07342	22.09143	1257.66197	-520.56404	-3.42513	1016.19963	-509.13981	19.46491	1053.44071	-576.61867	115.35741	984.30975	-573.51770	209.63742	857.92056	-587.97474	188.31535	850.02455	-614.23115	-3.48976	876.46919	-138.83240	-22.96345	853.01248	-343.03371	5.91887	871.48865	-153.03482	-16.87556	861.21489	-317.18097	
6	0.05000000	144.80968	499.53864	-98.92073	191.27642	436.02969	-116.84637	157.91934	95.44329	-123.72889	91.08263	65.79927	-161.86897	263.22599	43.99692	-95.73190	310.64431	73.00148	-151.84745	-64.21368	465.21341	-416.07632	-104.38327	376.75077	-429.91202	-380.90988	229.49321	-417.87831	-439.08905	269.51254	-366.99958	-395.12959	102.85096	-452.36098	-343.94089	79.95767	-406.44914	182.30906	321.07392	-94.44603	113.85815	439.06474	-84.45443	107.69142	326.21522	-85.65843	-152.74620	451.82732	-423.83147	-249.28058	377.47671	-433.78343	106.62468	821.77313	-75.15225	139.28062	712.12748	-79.49556	92.72936	676.34545	-47.27194	2.12297	787.94718	-50.08854	34.28978	676.72241	-57.01630	-10.75124	725.71621	-445.14515	-9.52196	589.28416	-430.27641	-109.29812	727.26495	-386.30295	-107.67428	586.78050	-384.94548	89.92172	957.15278	-130.58222	-105.83709	995.54114	-192.40821	74.31205	919.07813	-378.90117	-119.79401	988.74252	-292.52590	-85.10222	1400.90174	-278.08023	7.72829	1359.74581	-95.75643	2.94341	1364.50977	-453.08289	53.04254	1360.39228	-251.80630	59.01368	1361.40194	-293.29138	-2.15529	1236.01304	-19.11007	-82.35773	1026.49965	-30.61567	-66.14924	1052.74196	38.88094	58.63535	977.58232	31.81899	158.40762	884.65076	14.86525	142.21633	866.90730	41.68273	33.25177	1259.77074	-517.88641	4.76642	1018.65961	-505.76872	27.95076	1055.34326	-573.45617	123.27155	985.38531	-569.88859	216.58173	858.25275	-583.73835	195.28343	850.42872	-610.02571	9.24523	878.68537	-136.49663	-9.70404	854.39758	-340.65214	18.95637	873.87586	-150.12357	-3.92959	862.72670	-314.29273	
